<svg width="49" height="44" viewBox="0 0 49 44" fill="none" xmlns="http://www.w3.org/2000/svg">
<path d="M38.4088 7.01612C38.2229 5.83926 37.2006 4.96101 36.0215 4.96101C36.0157 4.96101 36.004 4.96101 35.9982 4.96101C28.6679 5.03712 21.5989 7.67189 15.982 12.3911C15.8078 10.3184 15.2211 8.29838 14.2511 6.44819C12.9268 3.92466 10.9344 1.81685 8.50066 0.353087C7.51902 -0.238272 6.29342 -0.0743315 5.52669 0.751229C1.87894 4.66825 -0.0843477 9.78556 0.00278026 15.1605C0.0840997 20.3363 2.059 25.2077 5.57897 28.9491C5.24788 30.2255 4.99812 31.5253 4.82967 32.8486C4.75997 33.3931 5.13752 33.8908 5.68352 33.9669C5.72418 33.9727 5.77065 33.9727 5.81131 33.9727C6.29923 33.9727 6.72325 33.6097 6.78714 33.1062C6.96721 31.7303 7.2344 30.3836 7.59453 29.0779C7.63519 28.9901 7.65842 28.9023 7.67004 28.8086C11.2307 16.2261 22.7432 7.09224 36.0331 6.95172C36.0331 6.95172 36.0331 6.95172 36.0389 6.95172C36.248 6.95172 36.4455 7.12152 36.4803 7.32644C37.2122 11.9812 37.2355 16.7004 36.55 21.361C36.5384 21.3961 36.5268 21.4312 36.521 21.4664C35.156 27.3741 31.3456 32.4212 26.054 35.3077C21.3898 37.8605 15.9588 38.528 10.8647 37.234C12.5841 36.0923 14.2337 34.8393 15.8078 33.4751C19.9609 29.8742 23.4518 25.6176 26.1818 20.834C26.4548 20.3598 26.2922 19.7508 25.8159 19.4757C25.3454 19.2005 24.7413 19.3644 24.4683 19.8445C20.4837 26.7827 14.7855 32.5792 8.01274 36.6661C7.9837 36.6778 7.96046 36.6953 7.93142 36.7129C5.75903 38.0186 3.48209 39.1427 1.11221 40.0795C0.606868 40.2786 0.351292 40.8583 0.55459 41.3677C0.705612 41.7599 1.07736 42 1.47234 42C1.59432 42 1.7163 41.9766 1.83247 41.9297C4.17911 41.0046 6.43282 39.9039 8.59359 38.6334C10.9983 39.4531 13.496 39.8629 15.9879 39.8629C19.7866 39.8629 23.568 38.9202 26.9718 37.0525C32.699 33.9259 36.8463 28.4807 38.3739 22.1046C38.4088 22.0226 38.4378 21.9348 38.4494 21.8411C39.1987 16.9229 39.1813 11.9344 38.4088 7.01612ZM9.91794 19.1712C9.90632 18.1056 9.85986 17.1161 9.77854 16.1676C9.59847 14.1417 9.25577 12.0105 8.733 9.63918C8.61683 9.10052 8.08825 8.76678 7.55387 8.88388C7.01948 9.00098 6.6884 9.53379 6.80457 10.0725C7.30991 12.3559 7.641 14.4052 7.80944 16.3432C7.97208 18.1993 7.98951 20.2427 7.85591 22.7545C7.22859 24.0309 6.68259 25.3483 6.22952 26.7066C0.28159 19.5518 0.484889 9.05368 6.95559 2.1096C7.08338 1.96908 7.3041 1.95151 7.48417 2.0569C11.7186 4.59799 14.2104 9.20006 14.0536 14.1417C12.4969 15.6816 11.1145 17.3678 9.91794 19.1712Z" fill="#333333"/>
<path d="M36.6704 31.9571L36.6738 31.958L38.9675 32.6149C38.968 32.6151 38.9685 32.6152 38.969 32.6153C38.9691 32.6154 38.9692 32.6154 38.9692 32.6154C39.2664 32.7003 39.5275 32.8798 39.7133 33.1262C39.8995 33.3731 40 33.6738 40 33.9827C40 34.2916 39.8995 34.5923 39.7133 34.8391M36.6704 31.9571L39.7133 34.8391M36.6704 31.9571C35.8017 31.7116 35.0101 31.2468 34.3716 30.6069C33.733 29.9669 33.2688 29.1732 33.0236 28.3017L33.0227 28.2983L32.3667 25.9979L32.3514 25.9443L32.3303 25.8928C32.2223 25.6292 32.0383 25.4033 31.8014 25.2442C31.5645 25.0851 31.2856 25 31 25C30.7144 25 30.4355 25.0851 30.1986 25.2442L30.7562 26.0743L30.1986 25.2442C29.9617 25.4033 29.7777 25.6292 29.6697 25.8928L29.6486 25.9443L29.6333 25.9979L28.9773 28.2983L28.9773 28.2983L28.9764 28.3017C28.7312 29.1733 28.267 29.9669 27.6284 30.6069C26.9899 31.2468 26.1983 31.7116 25.3296 31.9571L25.3296 31.957L25.3262 31.958L23.0325 32.6149C23.032 32.6151 23.0315 32.6152 23.0311 32.6153C23.031 32.6154 23.0309 32.6154 23.0308 32.6154C22.7336 32.7003 22.4725 32.8798 22.2867 33.1262C22.1005 33.3731 22 33.6738 22 33.9827C22 34.2916 22.1005 34.5923 22.2867 34.8391C22.4725 35.0855 22.7336 35.265 23.0308 35.3499C23.0309 35.35 23.031 35.35 23.0311 35.35C23.0315 35.3502 23.032 35.3503 23.0325 35.3504L25.3262 36.0073L25.3296 36.0083C26.1983 36.2537 26.9899 36.7186 27.6284 37.3585C28.267 37.9984 28.7312 38.7921 28.9764 39.6636L28.9773 39.6671L29.6328 41.9658C29.6329 41.9662 29.6331 41.9667 29.6332 41.9671C29.7176 42.2638 29.8961 42.5254 30.1424 42.7119C30.3892 42.8987 30.6902 43 31 43C31.3098 43 31.6108 42.8987 31.8576 42.7119C32.1039 42.5253 32.2825 42.2637 32.3669 41.967C32.367 41.9666 32.3671 41.9662 32.3672 41.9658L33.0227 39.6671L33.0236 39.6636C33.2688 38.7921 33.733 37.9984 34.3716 37.3585C35.0101 36.7186 35.8017 36.2537 36.6704 36.0083L36.6738 36.0073L38.9675 35.3504M36.6704 31.9571L38.9675 35.3504M39.7133 34.8391C39.5274 35.0857 39.266 35.2653 38.9686 35.3501M39.7133 34.8391L38.9686 35.3501M38.9686 35.3501C38.9682 35.3502 38.9679 35.3503 38.9675 35.3504M38.9686 35.3501L38.9675 35.3504" fill="#76BD42" stroke="#F9F9F9" stroke-width="2"/>
<path d="M48.847 27.7884L47.6992 27.4597C47.1824 27.3137 46.7116 27.0371 46.3319 26.6566C45.9521 26.2761 45.6762 25.8042 45.5305 25.2863L45.2025 24.136C45.186 24.0958 45.158 24.0614 45.1219 24.0372C45.0858 24.0129 45.0434 24 45 24C44.9566 24 44.9142 24.0129 44.8781 24.0372C44.842 24.0614 44.814 24.0958 44.7975 24.136L44.4695 25.2863C44.3238 25.8042 44.0479 26.2761 43.6681 26.6566C43.2884 27.0371 42.8176 27.3137 42.3008 27.4597L41.153 27.7884C41.109 27.8009 41.0702 27.8275 41.0426 27.8641C41.0149 27.9008 41 27.9454 41 27.9913C41 28.0372 41.0149 28.0819 41.0426 28.1185C41.0702 28.1552 41.109 28.1818 41.153 28.1943L42.3008 28.523C42.8176 28.669 43.2884 28.9455 43.6681 29.3261C44.0479 29.7066 44.3238 30.1784 44.4695 30.6964L44.7975 31.8466C44.81 31.8908 44.8365 31.9297 44.8731 31.9573C44.9096 31.985 44.9542 32 45 32C45.0458 32 45.0904 31.985 45.1269 31.9573C45.1635 31.9297 45.19 31.8908 45.2025 31.8466L45.5305 30.6964C45.6762 30.1784 45.9521 29.7066 46.3319 29.3261C46.7116 28.9455 47.1824 28.669 47.6992 28.523L48.847 28.1943C48.891 28.1818 48.9298 28.1552 48.9574 28.1185C48.9851 28.0819 49 28.0372 49 27.9913C49 27.9454 48.9851 27.9008 48.9574 27.8641C48.9298 27.8275 48.891 27.8009 48.847 27.7884Z" fill="#76BD42"/>
</svg>
