<svg width="48" height="45" viewBox="0 0 48 45" fill="none" xmlns="http://www.w3.org/2000/svg">
<path d="M30.5904 40.2448H9.40962C4.77256 40.2448 1 36.4723 1 31.8352V12.6215C1 7.98447 4.77256 4.21191 9.40962 4.21191H30.5904C35.2274 4.21191 39 7.98447 39 12.6215V31.8352C39 36.4723 35.2274 40.2448 30.5904 40.2448ZM9.40962 6.08072C5.80302 6.08072 2.8688 9.01493 2.8688 12.6215V31.8352C2.8688 35.4418 5.80302 38.376 9.40962 38.376H30.5904C34.197 38.376 37.1312 35.4418 37.1312 31.8352V12.6215C37.1312 9.01493 34.197 6.08072 30.5904 6.08072H9.40962Z" fill="#333333" stroke="#333333" stroke-width="0.2"/>
<path d="M12.5136 9.29292C11.9976 9.29292 11.5792 8.87458 11.5792 8.35851V1.9344C11.5792 1.41833 11.9976 1 12.5136 1C13.0297 1 13.448 1.41833 13.448 1.9344V8.35851C13.448 8.87458 13.0297 9.29292 12.5136 9.29292Z" fill="#333333" stroke="#333333" stroke-width="0.2"/>
<path d="M27.4868 9.29292C26.9708 9.29292 26.5524 8.87458 26.5524 8.35851V1.9344C26.5524 1.41833 26.9708 1 27.4868 1C28.0027 1 28.4212 1.41833 28.4212 1.9344V8.35851C28.4212 8.87458 28.0028 9.29292 27.4868 9.29292Z" fill="#333333" stroke="#333333" stroke-width="0.2"/>
<path d="M38.0656 15.6339H1.9344C1.41833 15.6339 1 15.2156 1 14.6995C1 14.1835 1.41833 13.7651 1.9344 13.7651H38.0656C38.5816 13.7651 39 14.1835 39 14.6995C39 15.2156 38.5816 15.6339 38.0656 15.6339Z" fill="#333333" stroke="#333333" stroke-width="0.2"/>
<path d="M10.455 24.3533C11.2763 24.3533 11.9422 23.6875 11.9422 22.8661C11.9422 22.0447 11.2763 21.3789 10.455 21.3789C9.63361 21.3789 8.96777 22.0447 8.96777 22.8661C8.96777 23.6875 9.63361 24.3533 10.455 24.3533Z" fill="#333333"/>
<path d="M21.4991 22.9633C21.5574 22.1436 20.9402 21.4318 20.1205 21.3735C19.3007 21.3152 18.589 21.9324 18.5306 22.7521C18.4723 23.5718 19.0896 24.2836 19.9093 24.3419C20.729 24.4002 21.4408 23.783 21.4991 22.9633Z" fill="#333333"/>
<path d="M29.5447 24.3533C30.366 24.3533 31.0319 23.6875 31.0319 22.8661C31.0319 22.0447 30.366 21.3789 29.5447 21.3789C28.7233 21.3789 28.0575 22.0447 28.0575 22.8661C28.0575 23.6875 28.7233 24.3533 29.5447 24.3533Z" fill="#333333"/>
<path d="M10.455 32.6309C11.2763 32.6309 11.9422 31.965 11.9422 31.1437C11.9422 30.3223 11.2763 29.6565 10.455 29.6565C9.63361 29.6565 8.96777 30.3223 8.96777 31.1437C8.96777 31.965 9.63361 32.6309 10.455 32.6309Z" fill="#333333"/>
<path d="M19.9996 32.6309C20.821 32.6309 21.4868 31.965 21.4868 31.1437C21.4868 30.3223 20.821 29.6565 19.9996 29.6565C19.1783 29.6565 18.5125 30.3223 18.5125 31.1437C18.5125 31.965 19.1783 32.6309 19.9996 32.6309Z" fill="#333333"/>
<path d="M29.5444 32.6309C30.3658 32.6309 31.0316 31.965 31.0316 31.1437C31.0316 30.3223 30.3658 29.6565 29.5444 29.6565C28.7231 29.6565 28.0573 30.3223 28.0573 31.1437C28.0573 31.965 28.7231 32.6309 29.5444 32.6309Z" fill="#333333"/>
<circle cx="37" cy="34" r="9.5" fill="#76BD42" stroke="#F9F9F9" stroke-width="3"/>
<rect x="32" y="34.332" width="1.56976" height="5.50992" rx="0.784879" transform="rotate(-45 32 34.332)" fill="white"/>
<rect x="41.3701" y="31" width="1.40214" height="8.97788" rx="0.701068" transform="rotate(45 41.3701 31)" fill="white"/>
</svg>
