<svg width="57" height="36" viewBox="0 0 57 36" fill="none" xmlns="http://www.w3.org/2000/svg">
<path d="M16.2134 28.2588H10.312C10.0574 28.2588 9.81319 28.1577 9.63313 27.9776C9.45308 27.7976 9.35193 27.5533 9.35193 27.2987C9.35193 27.0441 9.45308 26.7999 9.63313 26.6198C9.81319 26.4398 10.0574 26.3386 10.312 26.3386H16.2134C16.468 26.3386 16.7122 26.4398 16.8923 26.6198C17.0723 26.7999 17.1735 27.0441 17.1735 27.2987C17.1735 27.5533 17.0723 27.7976 16.8923 27.9776C16.7122 28.1577 16.468 28.2588 16.2134 28.2588Z" fill="#333333"/>
<path d="M40.157 28.2588H27.2661C27.0115 28.2588 26.7673 28.1577 26.5872 27.9776C26.4072 27.7976 26.306 27.5533 26.306 27.2987C26.306 27.0441 26.4072 26.7999 26.5872 26.6198C26.7673 26.4398 27.0115 26.3386 27.2661 26.3386H40.157C40.4116 26.3386 40.6558 26.4398 40.8358 26.6198C41.0159 26.7999 41.1171 27.0441 41.1171 27.2987C41.1171 27.5533 41.0159 27.7976 40.8358 27.9776C40.6558 28.1577 40.4116 28.2588 40.157 28.2588Z" fill="#333333"/>
<path d="M55.8198 28.2587H51.1986C50.944 28.2587 50.6998 28.1576 50.5197 27.9775C50.3397 27.7975 50.2385 27.5533 50.2385 27.2986C50.2385 27.044 50.3397 26.7998 50.5197 26.6198C50.6998 26.4397 50.944 26.3386 51.1986 26.3386H54.8789V18.901C54.8799 18.4202 54.7639 17.9464 54.5409 17.5204C54.3179 17.0944 53.9945 16.7291 53.5988 16.456L50.6545 14.4654C50.5516 14.3923 50.4627 14.3013 50.3921 14.1966L43.4027 3.39875C43.1119 2.94322 42.7106 2.56872 42.236 2.31018C41.7615 2.05165 41.2292 1.91749 40.6888 1.92021H15.5379C15.2832 1.92021 15.039 1.81906 14.859 1.63901C14.6789 1.45896 14.5778 1.21475 14.5778 0.960121C14.5778 0.705488 14.6789 0.461284 14.859 0.281232C15.039 0.10118 15.2832 2.84214e-05 15.5379 2.84214e-05H40.6888C41.5499 -0.00284024 42.3978 0.211493 43.1541 0.623202C43.9104 1.03491 44.5506 1.6307 45.0156 2.35545L51.8963 12.9869L54.6485 14.8687C55.3087 15.3144 55.8498 15.9149 56.2246 16.6178C56.5995 17.3206 56.7967 18.1045 56.7991 18.901V27.2986C56.7992 27.4264 56.7737 27.5528 56.7243 27.6706C56.6748 27.7883 56.6024 27.895 56.5112 27.9844C56.42 28.0738 56.3119 28.1441 56.1932 28.1912C56.0744 28.2383 55.9475 28.2613 55.8198 28.2587Z" fill="#333333"/>
<path d="M21.7368 34C20.4532 34 19.1983 33.6193 18.131 32.9062C17.0637 32.193 16.2319 31.1794 15.7406 29.9935C15.2494 28.8075 15.1209 27.5026 15.3713 26.2436C15.6217 24.9846 16.2399 23.8282 17.1475 22.9205C18.0552 22.0128 19.2116 21.3947 20.4706 21.1442C21.7296 20.8938 23.0346 21.0223 24.2205 21.5136C25.4064 22.0048 26.4201 22.8367 27.1332 23.904C27.8464 24.9713 28.227 26.2261 28.227 27.5098C28.227 29.2311 27.5432 30.8819 26.3261 32.099C25.1089 33.3162 23.4581 34 21.7368 34ZM21.7368 22.9397C20.8329 22.9397 19.9494 23.2077 19.1978 23.7099C18.4463 24.2121 17.8605 24.9258 17.5146 25.7609C17.1687 26.5959 17.0782 27.5148 17.2546 28.4013C17.4309 29.2878 17.8662 30.1021 18.5053 30.7413C19.1444 31.3804 19.9587 31.8156 20.8452 31.992C21.7317 32.1683 22.6506 32.0778 23.4857 31.7319C24.3208 31.386 25.0345 30.8003 25.5367 30.0487C26.0388 29.2972 26.3068 28.4136 26.3068 27.5098C26.3052 26.2982 25.8231 25.1368 24.9664 24.2801C24.1098 23.4234 22.9483 22.9414 21.7368 22.9397Z" fill="#333333"/>
<path d="M45.6688 34C44.3852 34 43.1304 33.6193 42.063 32.9062C40.9957 32.193 40.1639 31.1794 39.6726 29.9935C39.1814 28.8075 39.0529 27.5026 39.3033 26.2436C39.5537 24.9846 40.1719 23.8282 41.0795 22.9205C41.9872 22.0128 43.1437 21.3947 44.4026 21.1442C45.6616 20.8938 46.9666 21.0223 48.1525 21.5136C49.3384 22.0048 50.3521 22.8367 51.0652 23.904C51.7784 24.9713 52.159 26.2261 52.159 27.5098C52.1573 29.2305 51.473 30.8804 50.2562 32.0972C49.0394 33.3139 47.3896 33.9983 45.6688 34ZM45.6688 22.9397C44.7649 22.9397 43.8814 23.2077 43.1298 23.7099C42.3783 24.2121 41.7925 24.9258 41.4466 25.7609C41.1008 26.5959 41.0103 27.5148 41.1866 28.4013C41.3629 29.2878 41.7982 30.1021 42.4373 30.7413C43.0764 31.3804 43.8907 31.8156 44.7772 31.992C45.6637 32.1683 46.5826 32.0778 47.4177 31.7319C48.2528 31.386 48.9665 30.8003 49.4687 30.0487C49.9708 29.2972 50.2389 28.4136 50.2389 27.5098C50.2355 26.2987 49.7529 25.1383 48.8966 24.282C48.0403 23.4257 46.8798 22.9431 45.6688 22.9397Z" fill="#333333"/>
<path d="M51.1994 14.6318H35.6267C35.3721 14.6318 35.1279 14.5307 34.9478 14.3506C34.7678 14.1706 34.6666 13.9264 34.6666 13.6717V0.960107C34.6666 0.705474 34.7678 0.461271 34.9478 0.281218C35.1279 0.101166 35.3721 1.45114e-05 35.6267 1.45114e-05H40.5296C41.44 -0.0020905 42.3363 0.22485 43.1361 0.659949C43.9358 1.09505 44.6132 1.72432 45.106 2.48985L52.0059 13.1533C52.1011 13.2978 52.1553 13.4655 52.1625 13.6384C52.1697 13.8113 52.1298 13.9829 52.0469 14.1349C51.964 14.2868 51.8414 14.4133 51.6921 14.5009C51.5428 14.5884 51.3725 14.6337 51.1994 14.6318ZM36.5868 12.7116H49.4328L43.4931 3.53315C43.1741 3.03726 42.7355 2.6296 42.2176 2.34773C41.6997 2.06586 41.1192 1.91883 40.5296 1.9202H36.5868V12.7116Z" fill="#333333"/>
<path d="M12.8844 15.8926H0.960092C0.70546 15.8926 0.461257 15.7914 0.281204 15.6114C0.101152 15.4313 0 15.1871 0 14.9325C0 14.6779 0.101152 14.4337 0.281204 14.2536C0.461257 14.0736 0.70546 13.9724 0.960092 13.9724H12.8844C13.1391 13.9724 13.3833 14.0736 13.5633 14.2536C13.7434 14.4337 13.8445 14.6779 13.8445 14.9325C13.8445 15.1871 13.7434 15.4313 13.5633 15.6114C13.3833 15.7914 13.1391 15.8926 12.8844 15.8926Z" fill="#333333"/>
<path d="M11.7833 21.7175H4.62098C4.36635 21.7175 4.12215 21.6164 3.94209 21.4363C3.76204 21.2563 3.66089 21.0121 3.66089 20.7575C3.66089 20.5028 3.76204 20.2586 3.94209 20.0786C4.12215 19.8985 4.36635 19.7974 4.62098 19.7974H11.7833C12.0379 19.7974 12.2821 19.8985 12.4622 20.0786C12.6422 20.2586 12.7434 20.5028 12.7434 20.7575C12.7434 21.0121 12.6422 21.2563 12.4622 21.4363C12.2821 21.6164 12.0379 21.7175 11.7833 21.7175Z" fill="#333333"/>
<path d="M16.6518 10.0344H9.48951C9.23488 10.0344 8.99068 9.93329 8.81062 9.75324C8.63057 9.57319 8.52942 9.32898 8.52942 9.07435C8.52942 8.81972 8.63057 8.57552 8.81062 8.39546C8.99068 8.21541 9.23488 8.11426 9.48951 8.11426H16.6518C16.9064 8.11426 17.1506 8.21541 17.3307 8.39546C17.5107 8.57552 17.6119 8.81972 17.6119 9.07435C17.6119 9.32898 17.5107 9.57319 17.3307 9.75324C17.1506 9.93329 16.9064 10.0344 16.6518 10.0344Z" fill="#333333"/>
<path fill-rule="evenodd" clip-rule="evenodd" d="M16.2282 0H13.1141C10.3527 0 8.11414 2.23858 8.11414 5V27.2373C8.11414 27.7895 8.56185 28.2373 9.11414 28.2373H16.2282V26.3373H10.0141V5C10.0141 3.28792 11.4021 1.9 13.1141 1.9H16.2282V0Z" fill="#333333"/>
<circle cx="45" cy="28" r="7" fill="#76BD42" stroke="#F9F9F9" stroke-width="2"/>
<circle cx="23" cy="28" r="7" fill="#76BD42" stroke="#F9F9F9" stroke-width="2"/>
</svg>
