<svg width="49" height="47" viewBox="0 0 49 47" fill="none" xmlns="http://www.w3.org/2000/svg">
<path d="M42.1493 25.0906V12.3762C42.1493 12.116 42.0114 11.8758 41.7855 11.7453L22.7786 0.776605C22.5529 0.64608 22.2752 0.64608 22.0503 0.776605L1.36383 13.4239C1.13887 13.5544 1 13.7946 1 14.0547V32.625C1 32.8843 1.13878 33.1255 1.36383 33.255L22.0503 45.9023C22.1627 45.9675 22.2888 46.0001 22.414 46.0001C22.5401 46.0001 22.6653 45.9675 22.7777 45.9023L28.7563 42.4587C30.7882 44.6287 33.6754 45.9893 36.8774 45.9893C43.0101 45.9893 48 41.003 48 34.8746C48 30.6507 45.6298 26.9706 42.1493 25.0906ZM33.5802 8.69245L15.6709 19.0257C15.4459 19.1554 15.3071 19.3965 15.3071 19.6566V23.615L10.4824 20.8322V16.4524L28.76 5.90971L33.5802 8.69245ZM22.4149 44.432L2.45686 32.2044L2.45686 14.4753L22.414 2.24774L27.3032 5.06954L9.39015 15.4018C9.16428 15.5324 9.0255 15.7726 9.0255 16.0327V21.2529C9.0255 21.5121 9.16419 21.7533 9.38924 21.8828L15.6708 25.5067C15.7842 25.572 15.9102 25.6037 16.0354 25.6037C16.1616 25.6037 16.2876 25.5719 16.4002 25.5067C16.625 25.3771 16.7639 25.136 16.7639 24.8767V20.0763L35.037 9.53271L40.6927 12.7968V24.4336C39.5026 23.9984 38.2172 23.76 36.8775 23.76C30.7438 23.76 25.7549 28.7464 25.7549 34.8746C25.7549 37.2749 26.5232 39.4974 27.8221 41.3158L22.4149 44.432ZM36.8774 44.5335C31.5474 44.5335 27.2115 40.2007 27.2115 34.8745C27.2115 29.5484 31.5474 25.2157 36.8774 25.2157C42.2065 25.2157 46.5432 29.5485 46.5432 34.8746C46.5432 40.2008 42.2065 44.5335 36.8774 44.5335Z" fill="#333333" stroke="#333333" stroke-width="0.4"/>
<path d="M36.9726 29.5783C36.9726 29.1531 36.6429 28.8093 36.2351 28.8093C35.8273 28.8093 35.4975 29.1531 35.4975 29.5783V31.9349V35.8544C35.4975 36.2796 35.8274 36.6234 36.2351 36.6234H41.0112C41.419 36.6234 41.7488 36.2796 41.7488 35.8544C41.7488 35.4293 41.419 35.0855 41.0112 35.0855H36.9726V29.5783Z" fill="#333333" stroke="#333333" stroke-width="0.4"/>
<circle cx="37" cy="35" r="10.5" fill="#76BD42" stroke="#F9F9F9" stroke-width="3"/>
<path d="M37.1798 31.5904C37.1798 31.264 36.9161 31 36.5899 31C36.2637 31 36 31.264 36 31.5904V33.4V36.4096C36 36.736 36.2638 37 36.5899 37H40.4101C40.7363 37 41 36.736 41 36.4096C41 36.0832 40.7363 35.8192 40.4101 35.8192H37.1798V31.5904Z" fill="white" stroke="white" stroke-width="0.4"/>
</svg>
