<svg width="47" height="45" viewBox="0 0 47 45" fill="none" xmlns="http://www.w3.org/2000/svg">
<path d="M20.0438 40.9998C19.8887 40.9994 19.7356 40.9652 19.5949 40.8996L0.58195 31.7143C0.408291 31.6277 0.261945 31.4945 0.159202 31.3294C0.0564584 31.1643 0.00134805 30.9738 4.73792e-06 30.779V10.2207C-0.000525298 10.0451 0.0434246 9.87222 0.12772 9.71836C0.212015 9.5645 0.333884 9.43471 0.48187 9.34118C0.629856 9.24765 0.799094 9.19347 0.973668 9.18372C1.14824 9.17398 1.32241 9.20899 1.47981 9.28547L20.4928 18.4708C20.6664 18.5573 20.8128 18.6905 20.9155 18.8556C21.0183 19.0208 21.0734 19.2113 21.0747 19.406V39.9643C21.0747 40.1395 21.0305 40.3118 20.9462 40.4652C20.8619 40.6185 20.7402 40.7479 20.5925 40.8411C20.4287 40.9461 20.2381 41.0012 20.0438 40.9998ZM2.06175 30.1444L19.013 38.3444V20.0657L2.06175 11.8657V30.1444Z" fill="#333333"/>
<path d="M20.0436 20.4333C19.8998 20.4436 19.7554 20.4237 19.6197 20.3749L0.606707 11.1896C0.430183 11.107 0.280806 10.9755 0.176139 10.8106C0.0714728 10.6456 0.0158691 10.4541 0.0158691 10.2585C0.0158691 10.0629 0.0714728 9.87141 0.176139 9.70648C0.280806 9.54154 0.430183 9.41005 0.606707 9.32747L19.6197 0.100433C19.7587 0.0343024 19.9106 0 20.0644 0C20.2183 0 20.3702 0.0343024 20.5092 0.100433L39.5222 9.28572C39.697 9.3707 39.8445 9.50357 39.9474 9.66904C40.0504 9.83451 40.1047 10.0258 40.1041 10.221C40.1041 10.4149 40.0495 10.6048 39.9465 10.7689C39.8435 10.9329 39.6964 11.0643 39.5222 11.1478L20.451 20.3749C20.3205 20.4217 20.182 20.4415 20.0436 20.4333ZM3.41667 10.2126L20.0436 18.2539L36.6706 10.2293L20.0436 2.17965L3.41667 10.2126Z" fill="#333333"/>
<path d="M20.0443 41C19.85 41.0014 19.6594 40.9463 19.4956 40.8413C19.348 40.7481 19.2263 40.6187 19.1419 40.4654C19.0576 40.312 19.0134 40.1397 19.0134 39.9645V19.4145C19.0128 19.2194 19.0672 19.0281 19.1701 18.8626C19.2731 18.6972 19.4205 18.5643 19.5954 18.4793L38.6083 9.29402C38.7657 9.21754 38.9399 9.18252 39.1145 9.19227C39.289 9.20202 39.4583 9.2562 39.6063 9.34972C39.7543 9.44325 39.8761 9.57305 39.9604 9.7269C40.0447 9.88076 40.0887 10.0536 40.0881 10.2292V30.7709C40.0887 30.966 40.0344 31.1573 39.9314 31.3228C39.8285 31.4883 39.6811 31.6211 39.5062 31.7061L20.4517 40.8998C20.3241 40.9608 20.1855 40.9949 20.0443 41ZM21.0752 20.0659V38.3195L38.0264 30.1196V11.8659L21.0752 20.0659Z" fill="#333333"/>
<path d="M10.5329 15.8408C10.3014 15.8385 10.0774 15.7579 9.89709 15.6122C9.71674 15.4664 9.59048 15.264 9.53864 15.0374C9.4868 14.8108 9.51239 14.5732 9.61131 14.363C9.71023 14.1528 9.8767 13.9822 10.0839 13.8785L29.1052 4.69325C29.3512 4.57551 29.6335 4.56037 29.8905 4.65112C30.1476 4.74188 30.3584 4.93115 30.4769 5.17756C30.5361 5.2997 30.5705 5.4324 30.5783 5.568C30.5861 5.7036 30.567 5.8394 30.5221 5.96754C30.4773 6.09568 30.4076 6.21361 30.3171 6.31451C30.2265 6.41541 30.117 6.49727 29.9947 6.55536L10.9818 15.7406C10.8409 15.8055 10.6879 15.8397 10.5329 15.8408Z" fill="#333333"/>
<path d="M13.0848 24.8589C12.9295 24.8596 12.7761 24.8253 12.6358 24.7587L7.02422 22.0449C6.90198 21.9868 6.79243 21.9049 6.7019 21.804C6.61138 21.7031 6.54167 21.5852 6.49683 21.457C6.45199 21.3289 6.43289 21.1931 6.44065 21.0575C6.44841 20.9219 6.48287 20.7892 6.54203 20.6671C6.66055 20.4206 6.87137 20.2314 7.12841 20.1406C7.38545 20.0499 7.6678 20.065 7.91376 20.1827L13.5254 22.8799C13.732 22.9831 13.8982 23.1531 13.9973 23.3625C14.0963 23.5719 14.1226 23.8086 14.0718 24.0347C14.021 24.2609 13.8962 24.4634 13.7172 24.6098C13.5382 24.7562 13.3155 24.838 13.0848 24.8422V24.8589Z" fill="#333333"/>
<path d="M44.0806 20.6324L42.6967 23.8683C41.3657 26.5215 38.8804 28.3202 36.0282 28.8028V25.4343V23.3194L34.3936 24.6615L25.5386 31.9319L24.5956 32.7061L25.54 33.4787L34.395 40.7227L36.0282 42.0588V39.9487V36.3716C41.6346 35.6088 46 30.7761 46 24.9433V21.0256L44.0806 20.6324Z" fill="#76BD42" stroke="#F9F9F9" stroke-width="2"/>
</svg>
