<svg width="36" height="37" viewBox="0 0 36 37" fill="none" xmlns="http://www.w3.org/2000/svg">
<path d="M0 0H36V34.0763C36 35.483 34.5862 36.4502 33.2751 35.9403L18.3624 30.141C18.1293 30.0503 17.8707 30.0503 17.6376 30.141L2.72489 35.9403C1.41382 36.4502 0 35.483 0 34.0763V0Z" fill="#F24822"/>
<path d="M16.3129 9.884V18.068H14.3689V9.884H16.3129ZM13.8529 14.912L12.8809 16.436C11.6569 16.052 10.8529 15.308 10.3609 14.372C9.86894 15.392 9.02894 16.22 7.73294 16.628L6.74894 15.08C8.74094 14.456 9.36494 12.932 9.36494 11.564V10.496H11.3449V11.564C11.3449 12.92 11.9209 14.324 13.8529 14.912ZM10.6009 19.448H16.5769V20.972H8.65694V17.276H10.6009V19.448ZM28.12 15.248V16.796H25.876V21.176H23.944V16.796H21.952V21.176H20.02V16.796H17.932V15.248H24.64C24.868 13.892 24.94 12.836 24.952 11.996H19.072V10.448H26.884V11.108C26.884 12.02 26.884 13.352 26.56 15.248H28.12Z" fill="white"/>
</svg>
